<svg width="10px" height="10px" xmlns="http://www.w3.org/2000/svg">
    <symbol id="icon-facebook" viewBox="0 0 32 32">
        <path d="M29 0h-26c-1.65 0-3 1.35-3 3v26c0 1.65 1.35 3 3 3h13v-14h-4v-4h4v-2c0-3.306 2.694-6 6-6h4v4h-4c-1.1 0-2 0.9-2 2v2h6l-1 4h-5v14h9c1.65 0 3-1.35 3-3v-26c0-1.65-1.35-3-3-3z"></path>
    </symbol>
    <symbol id="icon-google" viewBox="0 0 32 32">
        <path d="M16.319 13.713v5.487h9.075c-0.369 2.356-2.744 6.9-9.075 6.9-5.463 0-9.919-4.525-9.919-10.1s4.456-10.1 9.919-10.1c3.106 0 5.188 1.325 6.375 2.469l4.344-4.181c-2.788-2.612-6.4-4.188-10.719-4.188-8.844 0-16 7.156-16 16s7.156 16 16 16c9.231 0 15.363-6.494 15.363-15.631 0-1.050-0.113-1.85-0.25-2.65l-15.113-0.006z"></path>
    </symbol>
    <symbol id="icon-phone" viewBox="0 0 24 24">
        <path d="M6.609 10.781q2.25 4.359 6.609 6.609l2.203-2.203q0.469-0.469 1.031-0.234 1.688 0.563 3.563 0.563 0.422 0 0.703 0.281t0.281 0.703v3.516q0 0.422-0.281 0.703t-0.703 0.281q-7.031 0-12.023-4.992t-4.992-12.023q0-0.422 0.281-0.703t0.703-0.281h3.516q0.422 0 0.703 0.281t0.281 0.703q0 1.875 0.563 3.563 0.188 0.609-0.234 1.031z"></path>
    </symbol>
    <symbol id="icon-arrow_down" viewBox="0 0 24 24">
        <path d="M20.016 12l-8.016 8.016-8.016-8.016 1.453-1.406 5.578 5.578v-12.188h1.969v12.188l5.625-5.578z"></path>
    </symbol>
    <symbol id="icon-money" viewBox="0 0 24 24">
        <path d="M11.813 10.922q1.031 0.281 1.711 0.563t1.43 0.773 1.148 1.242 0.398 1.781q0 1.453-0.961 2.367t-2.555 1.195v2.156h-3v-2.156q-1.547-0.328-2.555-1.313t-1.102-2.531h2.203q0.188 2.109 2.953 2.109 1.453 0 2.086-0.539t0.633-1.242q0-1.688-3-2.438-4.688-1.078-4.688-4.125 0-1.359 0.984-2.32t2.484-1.289v-2.156h3v2.203q1.547 0.375 2.367 1.406t0.867 2.391h-2.203q-0.094-2.109-2.531-2.109-1.219 0-1.945 0.516t-0.727 1.359q0 1.359 3 2.156z"></path>
    </symbol>
    <symbol id="icon-certificate" viewBox="0 0 24 28">
        <path d="M21.5 14l2.156 2.109c0.297 0.281 0.406 0.703 0.313 1.094-0.109 0.391-0.422 0.703-0.812 0.797l-2.938 0.75 0.828 2.906c0.109 0.391 0 0.812-0.297 1.094-0.281 0.297-0.703 0.406-1.094 0.297l-2.906-0.828-0.75 2.938c-0.094 0.391-0.406 0.703-0.797 0.812-0.094 0.016-0.203 0.031-0.297 0.031-0.297 0-0.594-0.125-0.797-0.344l-2.109-2.156-2.109 2.156c-0.281 0.297-0.703 0.406-1.094 0.313-0.406-0.109-0.703-0.422-0.797-0.812l-0.75-2.938-2.906 0.828c-0.391 0.109-0.812 0-1.094-0.297-0.297-0.281-0.406-0.703-0.297-1.094l0.828-2.906-2.938-0.75c-0.391-0.094-0.703-0.406-0.812-0.797-0.094-0.391 0.016-0.812 0.313-1.094l2.156-2.109-2.156-2.109c-0.297-0.281-0.406-0.703-0.313-1.094 0.109-0.391 0.422-0.703 0.812-0.797l2.938-0.75-0.828-2.906c-0.109-0.391 0-0.812 0.297-1.094 0.281-0.297 0.703-0.406 1.094-0.297l2.906 0.828 0.75-2.938c0.094-0.391 0.406-0.703 0.797-0.797 0.391-0.109 0.812 0 1.094 0.297l2.109 2.172 2.109-2.172c0.281-0.297 0.688-0.406 1.094-0.297 0.391 0.094 0.703 0.406 0.797 0.797l0.75 2.938 2.906-0.828c0.391-0.109 0.812 0 1.094 0.297 0.297 0.281 0.406 0.703 0.297 1.094l-0.828 2.906 2.938 0.75c0.391 0.094 0.703 0.406 0.812 0.797 0.094 0.391-0.016 0.812-0.313 1.094z"></path>
    </symbol>
    <symbol id="icon-person_outline" viewBox="0 0 24 24">
        <path d="M12 12.984q1.5 0 3.281 0.422t3.258 1.406 1.477 2.203v3h-16.031v-3q0-1.219 1.477-2.203t3.258-1.406 3.281-0.422zM12 3.984q1.641 0 2.813 1.195t1.172 2.836-1.172 2.813-2.813 1.172-2.813-1.172-1.172-2.813 1.172-2.836 2.813-1.195zM12 14.906q-2.063 0-4.078 0.773t-2.016 1.336v1.078h12.188v-1.078q0-0.563-2.016-1.336t-4.078-0.773zM12 5.906q-0.891 0-1.5 0.609t-0.609 1.5 0.609 1.477 1.5 0.586 1.5-0.586 0.609-1.477-0.609-1.5-1.5-0.609z"></path>
    </symbol>
    <symbol id="icon-services" viewBox="0 0 24 24">
        <path d="M9 15q-0.797 0-1.852 0.164t-2.133 0.492-1.992 0.797-1.477 1.102-0.563 1.43v2.016h16.031v-2.016q0-0.797-0.563-1.43t-1.477-1.102-1.992-0.797-2.133-0.492-1.852-0.164zM22.078 6.844q0.047-0.094 0.047-0.164v-0.164q0-0.188-0.047-0.375l0.75-0.563q0.141-0.094 0.047-0.234l-0.703-1.172q-0.047-0.141-0.234-0.094l-0.844 0.328q-0.234-0.188-0.563-0.328l-0.141-0.938q-0.047-0.141-0.188-0.141h-1.406q-0.141 0-0.188 0.141l-0.094 0.938q-0.328 0.141-0.609 0.328l-0.844-0.328q-0.188-0.047-0.234 0.094l-0.703 1.172q-0.047 0.141 0.047 0.234l0.75 0.563q-0.047 0.188-0.047 0.375 0 0.141 0.047 0.328l-0.75 0.563q-0.141 0.094-0.047 0.234l0.703 1.219q0.047 0.094 0.234 0.094l0.844-0.375q0.234 0.188 0.609 0.328l0.094 0.938q0.047 0.141 0.188 0.141h1.406q0.141 0 0.188-0.141l0.094-0.938q0.328-0.094 0.609-0.328l0.844 0.375q0.188 0.047 0.234-0.094l0.703-1.219q0.047-0.141-0.047-0.234zM19.5 7.734q-0.516 0-0.891-0.352t-0.375-0.867 0.375-0.891 0.891-0.375 0.891 0.375 0.375 0.891-0.375 0.867-0.891 0.352zM19.922 11.672l-0.516-0.844q-0.047-0.141-0.141-0.094l-0.609 0.281q-0.188-0.188-0.422-0.234l-0.094-0.703q-0.047-0.094-0.141-0.094h-0.984q-0.141 0-0.141 0.141l-0.094 0.656q-0.094 0.047-0.211 0.094t-0.211 0.141l-0.609-0.234q-0.094-0.047-0.141 0.047l-0.516 0.844q-0.047 0.094 0.047 0.188l0.516 0.422v0.469l-0.516 0.422q-0.094 0.047-0.047 0.141l0.516 0.891q0.047 0.094 0.141 0.047l0.609-0.281q0.188 0.188 0.422 0.281l0.094 0.656q0 0.094 0.141 0.094h0.984q0.141 0 0.141-0.094l0.047-0.656q0.141-0.047 0.234-0.117t0.188-0.164l0.656 0.281q0.094 0.047 0.141-0.047l0.516-0.891q0.047-0.094-0.047-0.141l-0.516-0.422v-0.469l0.516-0.422q0.094-0.094 0.047-0.188zM17.484 13.313q-0.328 0-0.563-0.234t-0.234-0.563q0-0.375 0.234-0.609t0.563-0.234q0.375 0 0.609 0.234t0.234 0.609q0 0.328-0.234 0.563t-0.609 0.234zM4.734 9h8.531q0.188 0 0.352-0.141t0.164-0.328v-0.047q0-0.188-0.164-0.328t-0.352-0.141h-0.281q0-1.125-0.539-2.039t-1.43-1.43v0.938q0 0.234-0.164 0.375t-0.352 0.141-0.352-0.141-0.164-0.375v-1.359l-0.469-0.094t-0.516-0.047-0.516 0.047l-0.469 0.094v1.359q0 0.234-0.164 0.375t-0.352 0.141-0.352-0.141-0.164-0.375v-0.938q-0.891 0.516-1.43 1.43t-0.539 2.039h-0.281q-0.188 0-0.328 0.141t-0.141 0.328v0.047q0 0.188 0.141 0.328t0.328 0.141zM9 12.984q1.406 0 2.461-0.844t1.383-2.156h-7.688q0.328 1.313 1.383 2.156t2.461 0.844z"></path>
    </symbol>
    <symbol id="icon-garage" viewBox="0 0 512 512">
        <g transform="translate(0.000000,512.000000) scale(0.100000,-0.100000)">
        <path d="M22 5097 c-22 -23 -22 -29 -22 -318 1 -225 4 -298 14 -311 21 -28 62
        -38 152 -38 l84 0 0 -2124 0 -2124 -100 -4 c-88 -3 -102 -6 -125 -28 -34 -32
        -35 -97 -2 -128 l23 -22 2515 0 2516 0 21 23 c32 34 30 96 -3 127 -23 22 -37
        25 -125 28 l-100 4 0 2124 0 2124 84 0 c90 0 131 10 152 38 10 13 13 86 14
        313 l0 296 -23 21 -23 22 -2515 0 -2516 0 -21 -23z m4918 -322 l0 -165 -2380
        0 -2380 0 0 165 0 165 2380 0 2380 0 0 -165z m-250 -2470 l0 -2125 -80 0 -80
        0 -2 2021 -3 2021 -28 24 -28 24 -1909 0 -1909 0 -28 -24 -28 -24 -3 -2021 -2
        -2021 -80 0 -80 0 0 2125 0 2125 2130 0 2130 0 0 -2125z m-340 1535 l0 -250
        -1790 0 -1790 0 0 250 0 250 1790 0 1790 0 0 -250z m0 -680 l0 -250 -1790 0
        -1790 0 0 250 0 250 1790 0 1790 0 0 -250z m0 -685 l0 -255 -1790 0 -1790 0 0
        255 0 255 1790 0 1790 0 0 -255z m0 -685 l0 -250 -1790 0 -1790 0 0 250 0 250
        1790 0 1790 0 0 -250z m0 -680 l0 -250 -1790 0 -1790 0 0 250 0 250 1790 0
        1790 0 0 -250z m0 -680 l0 -250 -1790 0 -1790 0 0 250 0 250 1790 0 1790 0 0
        -250z"/>
        <path d="M2248 410 c-48 -37 -41 -118 13 -145 41 -22 557 -22 598 0 54 27 61
        108 13 145 -23 19 -41 20 -312 20 -271 0 -289 -1 -312 -20z"/>
        </g>
    </symbol>

</svg>